<?xml version="1.0" encoding="utf-8"?>
<!-- Generator: Adobe Illustrator 22.0.0, SVG Export Plug-In . SVG Version: 6.00 Build 0)  -->
<svg version="1.1" id="Layer_1" xmlns="http://www.w3.org/2000/svg" xmlns:xlink="http://www.w3.org/1999/xlink" x="0px" y="0px"
	 viewBox="0 0 76.4 61.8" style="enable-background:new 0 0 76.4 61.8;" xml:space="preserve">
<style type="text/css">
	.st0{fill:#020203;}
</style>
<g>
	<path class="st0" d="M2.6,22.4c0.1,0,0.1,0,0.2,0c0.2,0,0.4,0.1,0.5,0.3l0,0l9.2,12.7l0-12.3v-0.7h1.3V23l0,14.4
		c0,0.2-0.1,0.4-0.2,0.5c-0.1,0.1-0.1,0.1-0.2,0.1l0,0l0,0c-0.1,0-0.1,0-0.2,0c-0.2,0-0.4-0.1-0.5-0.3l0,0L3.4,25.1v13H2.1V23
		c0-0.2,0.1-0.4,0.2-0.5C2.4,22.5,2.5,22.4,2.6,22.4L2.6,22.4z"/>
	<path class="st0" d="M29.4,37.6l-5.7-13l-5.7,13l0,0L17.8,38h-1.4l0.3-0.6l0.1-0.3l6.3-14.4c0.1-0.1,0.2-0.2,0.3-0.3
		c0.1-0.1,0.2-0.1,0.3-0.1s0.2,0,0.3,0.1c0.1,0.1,0.2,0.2,0.3,0.3v0l6.3,14.4l0,0L31,38h-1.4L29.4,37.6z"/>
	<path class="st0" d="M43.1,36.7V38h-8.9c-0.2,0-0.3-0.1-0.5-0.2c-0.1-0.1-0.2-0.3-0.2-0.5v-15h1.3v14.4H43.1z"/>
	<path class="st0" d="M47.2,23.7v5.9h7.3v1.3h-7.3v5.9h10V38H46.5c-0.2,0-0.3-0.1-0.5-0.2c-0.1-0.1-0.2-0.3-0.2-0.5V23
		c0-0.2,0.1-0.3,0.2-0.5c0.1-0.1,0.3-0.2,0.5-0.2h10.7v1.3H47.2z"/>
	<path class="st0" d="M72.7,22.4V23l0,14.4c0,0.2-0.1,0.4-0.2,0.5C72.3,38,72.1,38,72,38c-0.2,0-0.4-0.1-0.5-0.3l0,0l-9.2-12.7v13
		h-1.3V23c0-0.2,0.1-0.4,0.2-0.5c0.1-0.1,0.3-0.2,0.4-0.2c0.2,0,0.4,0.1,0.5,0.3l0,0l9.2,12.7l0-12.3v-0.7H72.7z"/>
	<path class="st0" d="M18.5,47.1h-0.7l-0.1-0.2l-1.7-3.8l-1.6,3.7l0,0l-0.1,0.2h-0.8l0.2-0.4l0-0.1l2-4.5c0.1-0.1,0.2-0.2,0.3-0.2
		c0.1,0,0.3,0.1,0.3,0.2l2,4.5l0,0.1L18.5,47.1z"/>
	<polygon class="st0" points="24,41.9 23.7,42.4 23.7,42.5 22.3,44.6 22.3,47.1 21.6,47.1 21.6,44.6 20.1,42.5 20,42.4 19.7,41.9 
		20.6,41.9 20.7,42 20.7,42.1 21.9,43.9 23.1,42.1 23.1,42 23.2,41.9 	"/>
	<path class="st0" d="M29.6,42.2L29.6,42.2l0,3.1c0,1-0.9,1.7-1.9,1.7c-1.1,0-1.9-0.8-1.9-1.7v-3.4h0.7v0.3l0,3.1c0,0.6,0.5,1,1.2,1
		s1.2-0.5,1.2-1v-3.4h0.7L29.6,42.2z"/>
	<path class="st0" d="M36.1,46.7L36.1,46.7c-0.4-1.1-0.6-1.7-0.9-2c0.5-0.2,0.9-0.7,0.9-1.3c0-0.8-0.7-1.5-1.6-1.5h0l-2,0
		c-0.2,0-0.3,0.2-0.3,0.3l0,2.2v0.1l0,2.2v0.3h0.7v-2.2h1.5c0.4,0.3,0.6,0.6,1.1,2l0,0l0.1,0.2h0.7L36.1,46.7z M33.3,44.2l-0.5,0
		v-1.6h1.6c0.5,0,0.9,0.4,0.9,0.8c0,0.4-0.4,0.8-0.9,0.8L33.3,44.2L33.3,44.2z"/>
	<path class="st0" d="M42.7,41.9l-0.2,0.4l0,0.1l-2,4.5c-0.1,0.1-0.2,0.2-0.3,0.2c-0.1,0-0.3-0.1-0.3-0.2l-2-4.5l0-0.1l-0.2-0.4h0.8
		l0.1,0.2l0,0l1.6,3.7l1.6-3.7l0,0l0.1-0.2H42.7z"/>
	<path class="st0" d="M45.3,42.6v1.5h2.3v0.7h-2.3v1.5h3.1v0.7h-3.5c-0.2,0-0.3-0.2-0.3-0.3v-4.5c0-0.2,0.2-0.3,0.3-0.3h3.5v0.7
		H45.3z"/>
	<path class="st0" d="M52.8,41.9L52.8,41.9l-1.7,0c-0.2,0-0.3,0.2-0.3,0.3v4.5c0,0.2,0.2,0.3,0.3,0.3h1.7c1.2-0.1,2-1.2,2-2.6
		C54.8,43.1,54,42,52.8,41.9z M52.8,46.4h-1.3v-3.8h1.3c0.8,0.1,1.4,0.9,1.4,1.9C54.1,45.5,53.6,46.3,52.8,46.4z"/>
	<path class="st0" d="M61.4,47.1h-0.7l-0.1-0.2l-1.7-3.8l-1.7,3.8l0,0l-0.1,0.2h-0.7l0.2-0.4l0-0.1l2-4.5c0.1-0.1,0.2-0.2,0.3-0.2
		c0.1,0,0.3,0.1,0.3,0.2l2,4.5l0,0.1L61.4,47.1z"/>
</g>
</svg>
